<svg xmlns="http://www.w3.org/2000/svg" width="502" height="449">
    <path fill="#FFF" fill-rule="evenodd" d="M438.098 157.109s-6.742 27.144-50.05 58.622c-16.097 11.695-6.501 34.371-6.501 34.371s5.859-19.018 19.558-12.512c13.693 6.501 12.922 31.625-5.96 36.678-18.877 5.054-51.357-14.053-39.431-46.06 11.921-31.996 50.828-63.057.681-102.943-50.14-39.88-14.559-79.89-7.372-80.363 7.187-.478 26.57-11.127 48.041 25.782 0 0 1.958-17.492-35.063-40.398-24.274-15.016-64.464-7.722-93.871 10.108 13.744 12.533 26.266 27.65 36.791 44.951 35.159 57.784-13.434 99.437-41.743 110.074 7.637 28.18 18.341 59.174 31.551 75.906 0 0-38.457 36.583-39.397 166.963l-5.51 10.322-5.51-10.322c-.94-130.38-39.396-166.963-39.396-166.963 13.321-16.878 24.088-48.249 31.742-76.62-28.399-11.763-74.33-53.315-39.38-109.804 10.637-17.194 23.25-32.204 37.067-44.62-29.272-18.027-69.372-25.602-93.736-10.777-37.19 22.63-35.361 40.133-35.361 40.133 21.741-36.745 41.046-25.951 48.227-25.422 7.187.529 42.469 40.798-7.969 80.307-50.439 39.515-11.769 70.858-.079 102.949 11.684 32.086-20.937 50.957-39.774 45.762-18.843-5.195-19.428-30.318-5.684-36.718 13.744-6.404 19.462 12.652 19.462 12.652s9.764-22.596-6.248-34.415c-43.077-31.799-49.611-58.994-49.611-58.994-55.695 48.587-63.175-23.3-63.175-23.3s22.506 17.666 45.486-4.154c22.979-21.825 32.013-93.96 88.85-119.725C171.378-8.03 214.314.468 251.285 26.796 288.465.71 331.491-7.49 368.029 9.406c56.646 26.187 65.145 98.384 87.961 120.379 22.816 21.994 45.452 4.497 45.452 4.497s-8.014 71.825-63.344 22.827zM251.195 53.029c-7.417 6.827-13.243 14.43-16.603 22.472-16.327 39.121 1.143 58.803 16.328 57.818 17.041-1.109 32.789-18.41 16.754-57.654-3.309-8.082-9.095-15.747-16.479-22.636z" opacity=".047"/>
</svg>
