<svg xmlns="http://www.w3.org/2000/svg" width="13" height="54">
    <path fill="#2B2525" fill-rule="evenodd" d="M3.866 3.985c0 1.92.903 3.012 2.108 3.012v8.535c0 1.908-.502 7.028-3.414 9.338 0 0 1.908 2.109 3.615 1.908 0 0-.904 7.029-5.523 11.647 0 0 5.954 6.098 6.176 15.368.221-9.27 6.174-15.368 6.174-15.368C8.384 33.807 7.48 26.778 7.48 26.778c1.707.201 3.615-1.908 3.615-1.908-2.912-2.31-3.414-7.43-3.414-9.338V6.997c1.205 0 2.108-1.167 2.108-3.012 0-.804-.325-3.013-2.961-3.013-2.599 0-2.962 2.209-2.962 3.013"/>
</svg>
