<?xml version="1.0" encoding="UTF-8" standalone="no"?><!DOCTYPE svg PUBLIC "-//W3C//DTD SVG 1.1//EN" "http://www.w3.org/Graphics/SVG/1.1/DTD/svg11.dtd"><svg width="100%" height="100%" viewBox="0 0 34 59" version="1.1" xmlns="http://www.w3.org/2000/svg" xmlns:xlink="http://www.w3.org/1999/xlink" xml:space="preserve" xmlns:serif="http://www.serif.com/" style="fill-rule:evenodd;clip-rule:evenodd;stroke-linejoin:round;stroke-miterlimit:1.41421;"><rect id="Artboard15" x="0" y="0" width="33.251" height="58.131" style="fill:none;"/><g><path d="M17.096,13.43c0,12.126 3.581,22.675 9.691,29.264c0,0 -1.719,-4.488 0.478,-8.593c0,0 -8.307,-5.442 -8.307,-20.623c0,-9.882 5.251,-10.407 6.969,-10.407c2.411,0 4.221,2.032 4.094,4.415c-0.143,2.686 -2.566,3.605 -3.711,3.605c-1.146,0 -2.769,-0.669 -2.769,-2.483c0,-1.813 1.145,-2.005 2.291,-2.005c0,0 -0.895,1.958 0.86,2.196c1.454,0.198 1.814,-1.145 1.814,-2.004c0,-0.86 -1.146,-1.91 -3.151,-1.91c-2.005,0 -3.724,1.145 -3.724,4.201c0,3.055 3.151,3.885 4.869,3.914c2.089,0.036 5.729,-1.623 5.729,-5.919c0,-4.296 -3.64,-6.206 -6.683,-6.206c-1.719,0 -8.45,0.811 -8.45,12.555" style="fill:#382d2f;fill-rule:nonzero;"/><path d="M7.429,0.875c-3.043,0 -6.683,1.909 -6.683,6.206c0,4.296 3.64,5.955 5.729,5.919c1.718,-0.029 4.869,-0.859 4.869,-3.914c0,-3.055 -1.719,-4.201 -3.724,-4.201c-2.005,0 -3.15,1.05 -3.15,1.909c0,0.86 0.359,2.203 1.814,2.006c1.754,-0.24 0.859,-2.196 0.859,-2.196c1.145,0 2.291,0.19 2.291,2.004c0,1.814 -1.623,2.483 -2.768,2.483c-1.146,0 -3.569,-0.919 -3.712,-3.604c-0.127,-2.384 1.682,-4.416 4.093,-4.416c1.719,0 6.97,0.525 6.97,10.406c0,15.181 -8.306,20.624 -8.306,20.624c2.196,4.105 0.477,8.592 0.477,8.592c6.11,-6.587 9.691,-17.137 9.691,-29.263c0,-11.744 -6.731,-12.555 -8.45,-12.555" style="fill:#382d2f;fill-rule:nonzero;"/><path d="M17.048,56.156c0.096,-13.272 4.011,-16.995 4.011,-16.995c-2.865,-3.628 -4.572,-13.845 -4.572,-13.845c0,0 -1.706,10.217 -4.57,13.845c0,0 3.914,3.723 4.01,16.995l0.56,1.05l0.561,-1.05Z" style="fill:#382d2f;fill-rule:nonzero;"/></g></svg>