<svg xmlns="http://www.w3.org/2000/svg" width="920" height="21">
    <path fill="#2E2626" fill-rule="evenodd" d="M839.736 9.803H80.878v1.001h758.858V9.803z"/>
    <path fill="#2E2626" fill-rule="evenodd" d="M839.093 15.105c3.112 0 4.883-1.465 4.883-3.418h13.836c3.092 0 11.393.814 15.137 5.534 0 0 3.419-3.092 3.092-5.859 0 0 11.395 1.465 18.882 8.952 0 0 9.885-9.652 24.911-10.011C904.808 9.944 894.923.294 894.923.294c-7.487 7.486-18.882 8.951-18.882 8.951.327-2.767-3.092-5.86-3.092-5.86-3.744 4.721-12.045 5.535-15.137 5.535h-13.836c0-1.954-1.893-3.418-4.883-3.418-1.303 0-4.884.528-4.884 4.801 0 4.212 3.581 4.802 4.884 4.802M80.935 5.502c-3.112 0-4.883 1.465-4.883 3.418H62.216c-3.092 0-11.393-.814-15.137-5.535 0 0-3.419 3.093-3.093 5.86 0 0-11.394-1.465-18.881-8.951 0 0-9.885 9.65-24.911 10.01 15.026.358 24.911 10.01 24.911 10.01 7.487-7.487 18.881-8.952 18.881-8.952-.326 2.767 3.093 5.859 3.093 5.859 3.744-4.72 12.045-5.533 15.137-5.533h13.836c0 1.953 1.893 3.417 4.883 3.417 1.303 0 4.884-.529 4.884-4.801 0-4.213-3.581-4.802-4.884-4.802"/>
</svg>
